/* XPM */
static char *de90081b5f94487daea49bbeea9972dc[] = {
/* columns rows colors chars-per-pixel */
"16 16 145 2 ",
"   c #001F6C",
".  c #00206D",
"X  c #002872",
"o  c #002973",
"O  c #002C75",
"+  c #002D75",
"@  c #002F76",
"#  c #003077",
"$  c #003078",
"%  c #003178",
"&  c #003278",
"*  c #003279",
"=  c #00347A",
"-  c #05347A",
";  c #033A7E",
":  c #023B7E",
">  c #023C7F",
",  c #063C7F",
"<  c #043D80",
"1  c #063D80",
"2  c #043E81",
"3  c #053E81",
"4  c #083D80",
"5  c #074081",
"6  c #084082",
"7  c #114283",
"8  c #104686",
"9  c #184B89",
"0  c #194D8B",
"q  c #1E4F8B",
"w  c #245892",
"e  c #2D5D95",
"r  c #2E5D95",
"t  c #305F97",
"y  c #3D659A",
"u  c #426A9D",
"i  c #416C9F",
"p  c #446FA0",
"a  c #4A72A2",
"s  c #4B72A3",
"d  c #4F77A6",
"f  c #577DAA",
"g  c #6386B0",
"h  c #688AB2",
"j  c #6D8CB4",
"k  c #6E8FB6",
"l  c #708EB5",
"z  c #7191B7",
"x  c #00A1ED",
"c  c #00A4EE",
"v  c #00A6EE",
"b  c #00A7EE",
"n  c #01A7EE",
"m  c #00A8EE",
"M  c #00A8EF",
"N  c #00A9EF",
"B  c #02A9EF",
"V  c #00AAEF",
"C  c #01AAEF",
"Z  c #00ABEF",
"A  c #01ADEF",
"S  c #08AFEF",
"D  c #04AFF0",
"F  c #05AFF0",
"G  c #06AFF0",
"H  c #0EAFF0",
"J  c #17B4F0",
"K  c #1EB6F1",
"L  c #1EB7F1",
"P  c #26B8F1",
"I  c #2FBBF2",
"U  c #2EBCF2",
"Y  c #33BBF2",
"T  c #33BDF2",
"R  c #34BDF2",
"E  c #36BEF2",
"W  c #39BDF2",
"Q  c #3CBFF3",
"!  c #3CC0F3",
"~  c #3DC0F3",
"^  c #40C1F3",
"/  c #47C4F4",
"(  c #59C9F5",
")  c #5CCAF5",
"_  c #64CCF5",
"`  c #65CCF5",
"'  c #65CDF5",
"]  c #6DCEF6",
"[  c #77D3F6",
"{  c #859FC0",
"}  c #ABBED4",
"|  c #B4C1D5",
" . c #B4C4D8",
".. c #B8C6DA",
"X. c #B9C8DB",
"o. c #AAE3F9",
"O. c #ACE3F9",
"+. c #AEE4FA",
"@. c #AFE5FA",
"#. c #B1E6FA",
"$. c #B5E6F9",
"%. c #C5D2E2",
"&. c #D1DAE7",
"*. c #D7DFEA",
"=. c #D6E0EB",
"-. c #DAE2EC",
";. c #DFE6EE",
":. c #DFE7EF",
">. c #C5EBFA",
",. c #C7EBFA",
"<. c #DDE7F0",
"1. c #D1F0FB",
"2. c #D3F1FC",
"3. c #D4F1FC",
"4. c #D6F1FC",
"5. c #E8EEF4",
"6. c #EBEFF4",
"7. c #EDF0F5",
"8. c #E0F4FC",
"9. c #E9F7FD",
"0. c #E3FCFF",
"q. c #EEF9FD",
"w. c #F3F5F8",
"e. c #F1F7FA",
"r. c #F7F9FB",
"t. c #F7FAFB",
"y. c #F1FAFD",
"u. c #F8FBFD",
"i. c #FCFBFC",
"p. c #FBFDFD",
"a. c #F8FCFE",
"s. c #F8FDFE",
"d. c #F9FDFE",
"f. c #FAFDFE",
"g. c #FBFEFE",
"h. c #FCFDFD",
"j. c #FEFCFC",
"k. c #FDFEFE",
"l. c #FEFEFE",
"z. c #FFFEFE",
"x. c #FFFFFE",
"c. c #FEFEFF",
"v. c #FEFFFF",
"b. c gray100",
"n. c None",
/* pixels */
"n.n.n.n.n.b.b.b.b.b.b.n.n.n.n.n.",
"n.n.n.n.r.} f r r d %.b.n.n.n.n.",
"n.n.b.*.r   & w r 2 | 0.,.b.n.n.",
"n.b.=.7 o h 6.b.b.u.b.] m 2.b.n.",
"n.b.y X p b.b.q.8.s.y.K b Y f.n.",
"b. .& & j b.r.I m K E A G b O.b.",
"b.j # = f b.i.>./ C b G F m _ b.",
"b.a & 3 3 ..b.b.b.2.~ C F m ^ b.",
"b.a & 5 : 4 z ;.b.b.f.W m C ~ b.",
"b.l + 5 : & + , g e.b.o.Z m _ b.",
"b...+ 2 q p 0 , 8 <.b.$.m m @.b.",
"n.b.u . { b.7.;.w.b.b._ b W f.n.",
"n.n.-.9 &.b.f.b.b.9.[ b H 4.n.n.",
"n.n.b.5.j.Q S P J m x U 4.b.n.n.",
"n.n.n.n.b.#.( Y E ( @.f.n.n.n.n.",
"n.n.n.n.n.b.b.b.b.b.b.n.n.n.n.n."
};
