/* XPM */
static char *_de8a3c60f3a48b7daa1ea944a0fb3b4[] = {
/* columns rows colors chars-per-pixel */
"32 32 91 1 ",
"  c #00236F",
". c #002E76",
"X c #003077",
"o c #00337A",
"O c #023B7E",
"+ c #053E80",
"@ c #083E81",
"# c #074082",
"$ c #094183",
"% c #114585",
"& c #164887",
"* c #1A4D8A",
"= c #1C508C",
"- c #25528E",
"; c #2B5791",
": c #275891",
"> c #2B5B93",
", c #346097",
"< c #3B659A",
"1 c #426A9D",
"2 c #4770A1",
"3 c #4E75A4",
"4 c #5178A6",
"5 c #5A7FAB",
"6 c #5E82AD",
"7 c #6385AF",
"8 c #6586B0",
"9 c #6A8BB3",
"0 c #7694B9",
"q c #7996BB",
"w c #00A6EE",
"e c #00AAEF",
"r c #04AEF0",
"t c #08AFF0",
"y c #07B0F0",
"u c #09B1F0",
"i c #12B2F0",
"p c #1BB4F1",
"a c #22B7F1",
"s c #22B8F1",
"d c #2DBAF2",
"f c #32BDF2",
"g c #46BFF3",
"h c #3DC0F3",
"j c #43C2F3",
"k c #4AC4F3",
"l c #54C7F4",
"z c #56C8F4",
"x c #5AC9F5",
"c c #61CCF5",
"v c #6BCFF6",
"b c #74D1F6",
"n c #7ED5F7",
"m c #839FC0",
"M c #8AA3C3",
"N c #96ADC9",
"B c #9CB2CC",
"V c #A1B6CF",
"C c #A3B7D0",
"Z c #ABBBD3",
"A c #AFC0D6",
"S c #B1C1D7",
"D c #BCCADC",
"F c #84D6F7",
"G c #8EDAF8",
"H c #94DCF8",
"J c #9BDEF8",
"K c #A8E2F9",
"L c #B4E6FA",
"P c #B9E8FA",
"I c #C1CEDF",
"U c #C7D3E2",
"Y c #CDD7E5",
"T c #CED9E6",
"R c #D3DDE8",
"E c #DCE3ED",
"W c #C4ECFB",
"Q c #CCEEFB",
"! c #D0EFFC",
"~ c #D6F2FC",
"^ c #DCF3FC",
"/ c #E5EAF1",
"( c #EDF1F5",
") c #E4F6FD",
"_ c #E9F7FD",
"` c #ECF9FD",
"' c #F0F3F7",
"] c #F3F5F9",
"[ c #F5FAFD",
"{ c #FDFEFE",
"} c None",
/* pixels */
"}}}}}}}}}}}}}[{{{[[}}}}}}}}}}}}}",
"}}}}}}}}}}{{{{{{{{{{{{}}}}}}}}}}",
"}}}}}}}}{{{]Dm7337MI[{{{}}}}}}}}",
"}}}}}}{{{/q-oXXoooXo>'{{{{}}}}}}",
"}}}}}{{{N%.O#OoXooo.1{{[[{{}}}}}",
"}}}}{{[6.O$oX=27983*C{{bj{{{}}}}",
"}}}{{{3.##o,A]{{{{{[[{[swj[{{}}}",
"}}}{{9.@+o8{{{{{{[{{{{Keuwz{{}}}",
"}}{{CX#+o<{{{{{{{{{{{{keryeH{{}}",
"}}{]-O@#XV{{{{{~!~_{{~eerrri_{}}",
"}{{NX#++OY{{{{xeerifbzerrrrwF{{}",
"}{{<o#OOOE{{{{dwyyeewrrerrrwd{{}",
"}{E@O+++OU{{{{)leeryrrrrrrrrrQ{}",
"{{ZX#+O#Xm{{{{{{QzteryrrrrrrwH{{",
"[{M.#++#O*/{{{{{{{^crwrwrrryeb{{",
"[{q.#OOOOo,/{{{{{{{{Pprrrrrywx{{",
"{{qX#+O+O#o&B{{{{{{{{^swrrrrwc{{",
"[{MX#+++#OOO.>B]{{{{{{Prrrrreb{{",
"[{So#OO+OOO#+oX*q({{{{{jwrrreJ{{",
"}{E#O+++O###+#+O.>({{{{berrreQ{}",
"}{{1X++O+O..oOO+# Z{{{{netred{{}",
"}{{BX@O#o8V4:%OOO3]{{{{cwrteF{{}",
"}}{[;O#OOY{{{/RYE{{{{{`peyep`{}}",
"}}{{So#X<{[{{{{{{{{{{{bwyreJ{{}}",
"}}}{{0.oM{{{{{{{{{{{{Gerywx{{}}}",
"}}}{{{5o/{[`{{{{{{`Lkerywk{{{}}}",
"}}}}{{]S{{Jrhkzlkfieerrwz{{{}}}}",
"}}}}}{{{{{gwrewreerrrwiH{{{}}}}}",
"}}}}}}{{{{Hfrwrweewesn_{{{}}}}}}",
"}}}}}}}}{{{{!JvxzvHW{{{{}}}}}}}}",
"}}}}}}}}}}{{{{{{{{{{{{}}}}}}}}}}",
"}}}}}}}}}}}}}{{[{{{}}}}}}}}}}}}}"
};
