/* XPM */
static char *_23168b1228246efa4b2b23becad9cae[] = {
/* columns rows colors chars-per-pixel */
"64 64 110 2 ",
"   c #002E76",
".  c #003077",
"X  c #003379",
"o  c #033B7F",
"O  c #0D3B7E",
"+  c #043D80",
"@  c #0A3D80",
"#  c #074082",
"$  c #0A4183",
"%  c #124686",
"&  c #134887",
"*  c #154A88",
"=  c #1A4C89",
"-  c #214F8C",
";  c #25548F",
":  c #295690",
">  c #2C5B93",
",  c #305D95",
"<  c #336197",
"1  c #3D669A",
"2  c #3D689C",
"3  c #426A9D",
"4  c #476FA1",
"5  c #486FA0",
"6  c #4C73A3",
"7  c #5177A5",
"8  c #5479A7",
"9  c #567BA8",
"0  c #5B7DAA",
"q  c #5F82AD",
"w  c #6787B0",
"e  c #6B8BB3",
"r  c #7191B7",
"t  c #7693B9",
"y  c #7A96BA",
"u  c #7E99BC",
"i  c #00A6EE",
"p  c #00ABEF",
"a  c #08AEEF",
"s  c #03AEF0",
"d  c #0BAFF0",
"f  c #0DB1F0",
"g  c #13B2F0",
"h  c #1CB5F1",
"j  c #21B6F1",
"k  c #2AB7F1",
"l  c #26B8F1",
"z  c #2BBAF2",
"x  c #32BCF2",
"c  c #3DBFF2",
"v  c #3DC0F3",
"b  c #44C2F3",
"n  c #4BC4F3",
"m  c #52C6F4",
"M  c #58C7F4",
"N  c #57C8F4",
"B  c #5BC9F4",
"V  c #63CCF5",
"C  c #6DCEF5",
"Z  c #6FD0F6",
"A  c #76D2F6",
"S  c #7BD4F6",
"D  c #819CBE",
"F  c #859FC0",
"G  c #86A2C2",
"H  c #89A4C3",
"J  c #92A9C6",
"K  c #96AECA",
"L  c #9AB1CB",
"P  c #A1B5CE",
"I  c #A3B7D0",
"U  c #A7BAD1",
"Y  c #ACBDD4",
"T  c #AFC0D6",
"R  c #B1C2D7",
"E  c #B5C4D8",
"W  c #BCCADC",
"Q  c #83D6F7",
"!  c #88D7F7",
"~  c #8AD8F7",
"^  c #8FDAF8",
"/  c #93DBF8",
"(  c #9FDFF9",
")  c #A5E2F9",
"_  c #A9E2F9",
"`  c #B4E6FA",
"'  c #BBE9FA",
"]  c #C1CFDF",
"[  c #C5D2E1",
"{  c #CED9E6",
"}  c #D3DCE7",
"|  c #D6DEE9",
" . c #DEE5EE",
".. c #C4EBFB",
"X. c #CBEEFB",
"o. c #D0EFFC",
"O. c #D4F1FC",
"+. c #DCF3FC",
"@. c #E1E7EF",
"#. c #E4EAF1",
"$. c #E9EEF3",
"%. c #EEF1F6",
"&. c #E4F6FD",
"*. c #E8F7FD",
"=. c #EDF9FD",
"-. c #F0F3F7",
";. c #F4F6F9",
":. c #F4FAFD",
">. c #FEFEFF",
",. c None",
/* pixels */
",.,.,.,.,.,.,.,.,.,.,.,.,.,.,.,.,.,.,.,.,.,.,.,.,.,.,.,.>.>.>.>.>.>.>.>.,.,.,.,.,.,.,.,.,.,.,.,.,.,.,.,.,.,.,.,.,.,.,.,.,.,.,.,.",
",.,.,.,.,.,.,.,.,.,.,.,.,.,.,.,.,.,.,.,.,.,.,.>.>.>.>.>.>.>.>.>.>.>.>.>.>.>.>.>.>.,.,.,.,.,.,.,.,.,.,.,.,.,.,.,.,.,.,.,.,.,.,.,.",
",.,.,.,.,.,.,.,.,.,.,.,.,.,.,.,.,.,.,.,.>.>.>.>.>.>.>.>.:.>.>.>.>.>.>.:.>.>.>.>.>.>.>.>.,.,.,.,.,.,.,.,.,.,.,.,.,.,.,.,.,.,.,.,.",
",.,.,.,.,.,.,.,.,.,.,.,.,.,.,.,.,.,.>.>.>.>.>.>.>.>.>.>.>.>.>.>.>.>.>.>.>.>.>.>.>.>.>.>.>.>.,.,.,.,.,.,.,.,.,.,.,.,.,.,.,.,.,.,.",
",.,.,.,.,.,.,.,.,.,.,.,.,.,.,.,.>.>.>.>.>.>.>.>.>.>.>.#.[ T L K K P R { $.>.>.>.>.>.>.>.>.>.>.>.,.,.,.,.,.,.,.,.,.,.,.,.,.,.,.,.",
",.,.,.,.,.,.,.,.,.,.,.,.,.,.,.>.>.>.>.>.>.>.>.#.L q , $ o . . . . . . o % , e Y $.>.>.>.>.>.>.>.>.,.,.,.,.,.,.,.,.,.,.,.,.,.,.,.",
",.,.,.,.,.,.,.,.,.,.,.,.,.>.>.>.>.>.>.>.:.E 7 $ . . X o o # + # # # # + o X   . & 9 #.>.>.>.>.>.>.>.>.,.,.,.,.,.,.,.,.,.,.,.,.,.",
",.,.,.,.,.,.,.,.,.,.,.,.>.>.>.>.:.>.>.Y , . . o @ # # + + + + + + + + + + + # # X O #.>.>.>.>.>.>.>.>.>.,.,.,.,.,.,.,.,.,.,.,.,.",
",.,.,.,.,.,.,.,.,.,.,.>.>.>.>.>.>.{ 2 . X # # + o + + + + + + o + + + o o + + # . q >.>.>.>.>.>.>.>.>.>.>.,.,.,.,.,.,.,.,.,.,.,.",
",.,.,.,.,.,.,.,.,.,.>.>.>.>.>.>.G o . # + + + + + o o # # @ # o + + + + # # # # X E >.>.>.>.>.O.=.>.>.>.>.>.,.,.,.,.,.,.,.,.,.,.",
",.,.,.,.,.,.,.,.,.>.>.>.>.>.%.5   + # o + + + o # # o . . . . o o o o . .   .   ; :.>.>.>.>.>.x x &.>.>.>.>.>.,.,.,.,.,.,.,.,.,.",
",.,.,.,.,.,.,.,.>.>.>.>.>. .>   # + o + + o # + X . # 2 r L E ] { { [ W P u 0 * r >.:.>.>.>.' p p h o.>.>.>.>.>.,.,.,.,.,.,.,.,.",
",.,.,.,.,.,.,.>.>.>.>.>. .- . # o + + + o o o   , J  .>.>.>.>.>.>.>.>.>.>.>.>.;.-.>.>.>.>.>.M p a s f X.>.>.>.>.>.,.,.,.,.,.,.,.",
",.,.,.,.,.,.>.>.>.>.>.#.; . # + + + + o # . = I >.>.>.>.:.>.>.>.>.:.>.>.>.:.>.>.>.>.>.>.>.+.f s s s p f o.>.>.>.>.>.,.,.,.,.,.,.",
",.,.,.,.,.,.>.>.>.>.:.1 . # o + + + o # . 5 $.>.>.>.>.>.>.>.>.>.>.>.>.>.>.>.>.>.>.>.>.>.>.! i s s p s p j &.>.>.>.>.,.,.,.,.,.,.",
",.,.,.,.,.>.>.>.>.>.w   # + + + o o # . 7 >.>.:.>.>.>.>.>.>.>.>.>.>.>.>.>.>.>.>.>.>.>.>.>.z p a s s s a p b >.>.>.>.>.,.,.,.,.,.",
",.,.,.,.>.>.>.>.>.U   + + + o + o + o ; %.>.>.>.>.>.>.>.>.>.>.>.>.>.>.>.>.>.>.>.>.>.>.>.` p s s s s s s s i Q >.>.>.>.>.,.,.,.,.",
",.,.,.,.>.>.>.>.$.= o + + + + + + + . Y >.>.>.>.>.>.>.>.>.>.>.>.>.>.>.>.>.>.>.>.>.>.>.>.M p s s s s s s s s a o.>.>.>.>.,.,.,.,.",
",.,.,.>.>.>.>.>.e   + + + + + + + o : >.>.>.>.>.>.>.>.>.>.>.>.>.>.>.>.>.>.>.>.>.>.>.>.&.f s s s s s s s s s p n >.>.>.>.>.,.,.,.",
",.,.,.>.>.>.>.} @ + + + + + + + @   e >.>.>.>.>.>.>.>.>.>.>.X._ ) _ ` ..+.:.>.>.>.:.>.^ i a p s p s s s s p s i ` >.>.>.>.,.,.,.",
",.,.>.>.>.>.>.w   + + + + + + + # . L >.:.>.>.>.>.>.>.>.+.x p p p p p p s h v A ` &.>.x p s s s s s s s s p s p b >.>.>.>.>.,.,.",
",.,.>.>.>.>.#.% o + + + + + + + + . E >.>.>.>.>.>.>.>.>.b i s s s s s s s p p i p f x a s s s s s s s s s s s s p ..>.>.>.>.,.,.",
",.,.>.>.>.>.J   + + + + o + + + + o [ >.>.>.>.>.>.>.>.>.k p s s s s s s s s s s s s p s s p s s s s s s s s s s p C >.>.>.>.,.,.",
",.>.>.>.>.>.3 . + + + + + + + o + X W >.>.>.>.>.>.>.>.>.! i s a s s s s s s s s s s s s s s s s s s s s s s s s p j :.>.>.>.>.,.",
",.>.>.>.>.@.$ o + + + + + + + + @ . Y >.>.>.>.>.>.>.>.>.>.~ a p s s s s s s s s s s s s s s s s s s s s s s s s s p ..>.>.>.>.,.",
",.>.>.>.>.Y . # + + + + + + + + # . G >.:.>.>.>.>.>.>.>.>.>.+.B s i s s s p s s s s s s s s s s s s s s s s s s s i Q >.>.>.>.,.",
",.>.>.:.>.t . # + + + + + + + + # . 4 >.>.>.>.>.>.>.>.>.>.>.>.>.O.B a i s a s s s s s s s p s s p s s s s s s s a p n >.>.>.>.,.",
",.>.>.>.>.6 . + o + + + + o + + + o @ } >.>.>.>.>.>.>.>.>.>.>.>.>.>.&.A g i p s s s s s s s s s s s s s s s p s s s l >.>.>.>.,.",
">.>.>.>.>.> X + + + + + + + + + + + . 0 >.>.>.>.>.>.>.>.>.>.>.>.>.>.>.>.=.^ h p a s s s s s s s s s s s s s s s s s f &.>.>.>.>.",
">.>.>.>.%.= o + + + + + + + + + + + # . L >.:.>.>.>.>.>.>.>.>.>.>.>.>.>.>.>.:.! f p a s s s s s s s s s s s s s s s s o.>.>.>.>.",
">.>.>.>.#.% o + + + + o + + o + + o + o O E >.>.>.>.>.>.>.>.>.>.>.>.>.>.>.:.>.>.+.v i s s p s s s s s s s s s s s s s ..>.>.>.>.",
">.>.>.>. .# o o + + + + + + + + + + + + o o L >.>.>.>.>.>.>.>.>.>.>.>.>.>.>.>.>.>.>.C p s s p s s s s s s s s s s s p ' >.>.>.>.",
">.>.>.>.@.$ o o + + + + + + + + + + + o + + . 9 @.>.>.>.>.>.>.>.>.>.>.>.>.>.>.>.>.>.>.Q p s s s s s s s s s s s s s p ' >.>.>.>.",
">.>.>.>.#.$ o + + o + + + + + + + + + + o + + . % D %.>.>.>.>.>.>.>.>.>.>.>.>.>.>.>.>.>.S p s p s s s s s s s s s s p ..>.>.>.>.",
">.>.>.>.;.= o + + + + + o + + + + + + + + o o + o   * D #.>.>.>.>.>.>.>.>.>.>.>.>.>.>.>.>.c p s s s s s s s s s s p s O.>.>.>.>.",
">.>.>.>.>., o + + + + + + + + o + + + + + + + o o + o   % r } >.>.>.>.>.>.>.>.>.>.>.>.>.>...p s s s s s s s s s s p f *.>.>.>.>.",
",.>.>.>.>.7   + + + o + + + + + + + o + + + + + + o + # o   o 6 R >.>.>.>.>.>.>.>.>.>.>.>.>.m p s s s s s s s s s p l >.>.>.>.,.",
",.>.>.:.>.u   # + + + + + + + + + + + + + + + + + + + o + # + . . < W >.>.>.>.>.>.>.>.>.>.>._ p s s s s s s s s s p m >.>.>.>.,.",
",.>.>.>.>.E   + + + + + + + + + + + + + o + + + + + + + + o + # + X . H >.>.>.>.>.>.>.>.>.>.o.s s s s s s s s p s p ! >.>.>.>.,.",
",.>.>.>.>.$.% o + + + + + o + + + + + + + + + + + + + + + + + + + # +   R >.>.>.>.>.>.>.>.>.&.f s s s s s s s s s p ..>.>.>.>.,.",
",.>.>.>.>.>.6 . # o + + + + + + o o o @ # + + + o + + + + + + + + o # . 0 >.>.>.>.>.>.>.>.>.=.g p s s s s s s s p k :.>.>.>.>.,.",
",.,.>.>.>.>.P . # o + + + + + + o + + . . o + @ @ + + + + + + + + + $ . 0 >.>.>.>.>.>.>.>.>.&.f s s s s s s s s p A >.>.>.>.,.,.",
",.,.>.>.>.>.%.= o o o + + o + + + o o e 7 & X . . o o o + # # # + o . o ] >.>.>.>.>.>.>.>.>.o.p s s s s s s s s p o.>.>.>.>.,.,.",
",.,.>.>.>.>.>.t . # o + + + + + + o ; :.>.-.W G 8 > $ o X . . . X @ 2 [ >.>.>.>.>.>.>.>.>.>._ p s s s s s p s p m >.>.>.>.>.,.,.",
",.,.,.>.>.>.>.@.% o o + + o # o # . y >.>.>.>.>.>.>.$.{ W Y Y Y W @.>.>.>.>.>.>.>.>.>.>.>.>.m p a s s s s s s p ..>.>.>.>.,.,.,.",
",.,.,.>.>.>.>.>.D   @ o + + + o o o { >.>.>.:.:.:.>.>.>.>.>.>.>.>.>.>.>.>.>.>.>.>.>.>.>.>...p s s s s s s a i M >.>.>.>.>.,.,.,.",
",.,.,.,.>.>.>.>.:.: X # o + o # X 3 >.>.>.>.>.>.>.>.>.>.>.>.>.>.>.>.>.>.>.>.>.>.>.>.>.>.>.b p a s s s s s s f +.>.>.>.>.,.,.,.,.",
",.,.,.,.>.>.>.:.>.W X + + + o #   J >.>.>.>.>.>.>.>.>.>.>.>.>.>.>.>.>.>.>.>.>.>.>.>.>.>.~ p s s s s s p s p / >.>.>.>.>.,.,.,.,.",
",.,.,.,.,.>.>.>.>.>.u   # o o o % @.>.>.>.>.>.>.>.>.>.>.>.>.>.>.>.>.>.>.>.>.>.>.>.>.>._ p s s s s s s a p M >.>.>.>.>.,.,.,.,.,.",
",.,.,.,.,.,.>.>.>.>.>.7   # # . 8 >.>.>.>.>.>.>.>.>.>.>.>.>.>.>.>.>.>.>.>.>.>.>.>.>./ p s s s s s p s p z :.>.>.>.>.,.,.,.,.,.,.",
",.,.,.,.,.,.>.>.>.>.>.;.1   $ X Y >.:.>.>.>.>.>.:.>.>.>.>.:.>.>.>.>.>.>.>.>.>.>...b i s s p s s p a p h +.>.>.>.>.>.,.,.,.,.,.,.",
",.,.,.,.,.,.,.>.>.>.>.>.%.1   : ;.>.>.>.>.+.+.>.>.>.>.>.>.>.>.>.>.>.>.>.:.O./ v p p s s s s s s s p h O.>.>.>.>.>.,.,.,.,.,.,.,.",
",.,.,.,.,.,.,.,.>.>.>.>.>.:.1 y >.>.>.>.>.V p x N S ^ ( ) _ ) ) ^ Q V b j s i p a s s s s s s a p k +.>.>.>.>.>.,.,.,.,.,.,.,.,.",
",.,.,.,.,.,.,.,.,.>.>.>.>.>.;.%.>.>.>.>.:.h p p i p i p p p i p p i p p p s a s s s s s s s p i b =.>.>.>.>.>.,.,.,.,.,.,.,.,.,.",
",.,.,.,.,.,.,.,.,.,.>.>.>.>.>.>.>.>.>.>.' p s s a a s s a s a s a s a a s s p s s s s s s p a ~ >.>.>.>.>.>.,.,.,.,.,.,.,.,.,.,.",
",.,.,.,.,.,.,.,.,.,.,.>.>.>.>.>.>.>.>.>.V i f a s s s s s s s s s s s s s s s s s a s p p b O.>.>.>.>.>.>.,.,.,.,.,.,.,.,.,.,.,.",
",.,.,.,.,.,.,.,.,.,.,.,.>.>.>.>.>.>.>.>.Z s p p s s s s s s s s s s s s s s s s s p p c ` >.>.>.>.>.>.>.,.,.,.,.,.,.,.,.,.,.,.,.",
",.,.,.,.,.,.,.,.,.,.,.,.,.>.>.>.>.>.>.>.>.+.S l s i p s s s s s s s s s p p i i g V ..>.>.>.>.>.>.>.>.,.,.,.,.,.,.,.,.,.,.,.,.,.",
",.,.,.,.,.,.,.,.,.,.,.,.,.,.,.>.>.>.>.>.>.>.>.:.X.! n l a p p p p p p s h b S ` =.>.>.>.>.>.>.>.>.,.,.,.,.,.,.,.,.,.,.,.,.,.,.,.",
",.,.,.,.,.,.,.,.,.,.,.,.,.,.,.,.>.>.>.>.>.>.>.>.>.>.>.>.&.o.' ` ` ` X.+.:.>.>.>.>.>.>.>.>.>.>.>.,.,.,.,.,.,.,.,.,.,.,.,.,.,.,.,.",
",.,.,.,.,.,.,.,.,.,.,.,.,.,.,.,.,.,.>.>.>.>.>.>.>.>.>.>.>.>.>.>.>.>.>.>.>.>.>.>.>.>.>.>.>.>.,.,.,.,.,.,.,.,.,.,.,.,.,.,.,.,.,.,.",
",.,.,.,.,.,.,.,.,.,.,.,.,.,.,.,.,.,.,.,.,.>.>.>.>.>.>.>.>.>.>.>.>.>.>.>.>.>.>.>.>.>.>.,.,.,.,.,.,.,.,.,.,.,.,.,.,.,.,.,.,.,.,.,.",
",.,.,.,.,.,.,.,.,.,.,.,.,.,.,.,.,.,.,.,.,.,.,.,.>.>.>.>.>.>.>.>.>.>.>.>.>.>.>.>.,.,.,.,.,.,.,.,.,.,.,.,.,.,.,.,.,.,.,.,.,.,.,.,.",
",.,.,.,.,.,.,.,.,.,.,.,.,.,.,.,.,.,.,.,.,.,.,.,.,.,.,.,.,.>.>.>.>.>.>.,.,.,.,.,.,.,.,.,.,.,.,.,.,.,.,.,.,.,.,.,.,.,.,.,.,.,.,.,."
};
